<?xml version="1.0" encoding="UTF-8"?>
<svg xmlns="http://www.w3.org/2000/svg" height="48" width="48" xmlns:xlink="http://www.w3.org/1999/xlink">
<defs>
<linearGradient id="h" y2="52.67" gradientUnits="userSpaceOnUse" y1="19.74" x2="17.7" x1="11.89">
<stop stop-color="#fff" offset="0"/>
<stop stop-color="#fff" stop-opacity="0" offset="1"/>
</linearGradient>
<linearGradient id="i" y2="43.4" gradientUnits="userSpaceOnUse" y1="20.94" x2="30.1" x1="12.1">
<stop stop-color="#ebebeb" offset="0"/>
<stop stop-color="#acacac" offset="1"/>
</linearGradient>
<linearGradient id="f" y2="609.5" gradientUnits="userSpaceOnUse" x2="0" gradientTransform="matrix(.068 0 0 .041-1.34 20.69)" y1="366.6">
<stop stop-opacity="0" offset="0"/>
<stop offset=".5"/>
<stop stop-opacity="0" offset="1"/>
</linearGradient>
<linearGradient id="g" y2="5" gradientUnits="userSpaceOnUse" y1="14.91" x2="35.3" x1="11.5">
<stop stop-color="#8c8c8c" offset="0"/>
<stop stop-color="#8c8c8c" stop-opacity="0" offset="1"/>
</linearGradient>
<radialGradient id="d" gradientUnits="userSpaceOnUse" cy="486.6" cx="605.7" gradientTransform="matrix(-.056 0 0 .041 40.5 20.69)" r="117.1">
<stop offset="0"/> 
<stop stop-opacity="0" offset="1"/>
</radialGradient>
</defs>
<path d="m10.5 19.25c.25-7.37 4.12-11 9.25-10.88 5.13.13 5.87 3.38 12.63 3.38 6.74 0 6.74-4.5 5.62-5.75s-2.38-2.5-2.38-2.5" stroke="url(#g)" stroke-width="1" fill="none"/>
<g opacity=".5">
<path opacity="1" fill="url(#f)" d="m6.8 35.76h32.78v9.98h-32.78z"/>
<path id="e" opacity="1" d="m6.8 35.76v9.98c-12.53-1.5-9.1-9.81 0-9.98" fill="url(#d)"/>
<use xlink:href="#e" transform="matrix(-1 0 0 1 46.4 0)"/>
</g>
<path d="m1.63 40.72c-.31.94.19 1.56 1.13 1.62h39.75c1.44.07 2-.87 1.88-1.62l-3.63-19.33c-.19-1.25-1.25-1.94-2.25-1.87h-30.75c-1-.07-1.56.81-1.75 1.75l-4.38 19.45z" stroke="#626262" fill="url(#i)"/>
<g transform="translate(-1.94-1)">
<rect rx=".69" height="2.94" width="13.79" y="35.1" x="11.19" fill="#6d6d6d"/>
<rect rx=".69" height="1.88" width="13.44" y="35.1" x="11.31" fill="#e4e4e4"/>
</g>
<path d="m2.72 40.2c-.33 1.25-.39 1.1.94 1.1h37.74c1.64 0 2.19.27 1.83-1.16l-3.36-18.1c-.27-1.41-.67-1.49-2.25-1.49h-28.99c-1.42 0-1.35.08-1.65 1.34l-4.25 18.36z" stroke="url(#h)" fill="none"/>
<g id="j">
<rect rx="1.24" ry=".69" height="2.18" width="2.48" y="21.99" x="30.37" fill="#787843"/>
<rect rx="1.24" ry=".69" height="2.18" width="2.48" y="22.37" x="30.64" fill="#e7e745"/>
</g><g id="b">
<g id="a" transform="matrix(.233 0 0 1 5.7-8.21)">
<rect rx="2.95" ry=".69" height="2.94" width="13.94" y="35.1" x="11.19" fill="#6d6d6d"/>
<rect rx="2.95" ry=".69" height="1.88" width="13.44" y="35.1" x="11.31" fill="#e4e4e4"/>
</g><g id="c">
<use xlink:href="#a" x="4"/>
<use xlink:href="#a" x="8"/>
</g>
<use xlink:href="#c" x="8"/>
</g>
<use xlink:href="#b" x="-.88" y="-3.41"/>
<use xlink:href="#b" x="2" y="3.15"/>
<use xlink:href="#a" x="-2" y="3.15"/>
<use xlink:href="#c" x="18.93"/>
<use xlink:href="#a" x="-2.94" y="7.21"/>
<use xlink:href="#a" x="15.38" y="7.21"/>
<use xlink:href="#a" x="21.25" y="7.21"/>
<use xlink:href="#a" x="28.69" y="7.21"/>
<use xlink:href="#a" x="24.97" y="7.21"/>
<use xlink:href="#a" x="24.75" y="4.21"/>
<use xlink:href="#j" x="4"/>
</svg>